<svg width="157" height="32" viewBox="0 0 157 32" fill="none" xmlns="http://www.w3.org/2000/svg">
<path fill-rule="evenodd" clip-rule="evenodd" d="M6.71812 6.71757C7.71011 5.72557 9.59348 5.34578 12.2718 6.13352C12.4606 6.18905 12.6515 6.24999 12.8442 6.31629C11.6298 7.1782 10.44 8.18116 9.31084 9.31029C8.87424 9.74689 8.4572 10.1918 8.06039 10.643C7.51329 11.2651 7.57406 12.2129 8.19613 12.76C8.81819 13.3071 9.766 13.2463 10.3131 12.6243C10.6675 12.2213 11.0407 11.8231 11.4322 11.4316C12.9144 9.94939 14.4837 8.73835 16.0284 7.81847C17.573 8.73835 19.1423 9.94939 20.6245 11.4316C22.3065 13.1136 23.6393 14.9078 24.5937 16.6506C24.6229 16.7154 24.6568 16.7781 24.6951 16.8384C25.2348 17.8505 25.6458 18.8433 25.9226 19.7844C26.7104 22.4627 26.3306 24.346 25.3386 25.338C24.3466 26.33 22.4632 26.7098 19.7849 25.9221C19.5961 25.8666 19.4052 25.8056 19.2125 25.7393C20.4269 24.8774 21.6167 23.8745 22.7459 22.7453C23.1635 22.3277 23.5633 21.9024 23.9445 21.4713C24.4934 20.8508 24.4352 19.9028 23.8147 19.354C23.1942 18.8051 22.2462 18.8632 21.6974 19.4838C21.3568 19.8689 20.999 20.2495 20.6245 20.624C19.1423 22.1062 17.573 23.3173 16.0284 24.2371C14.4837 23.3173 12.9144 22.1062 11.4322 20.624C8.71081 17.9026 6.90357 14.8875 6.13407 12.2712C5.34634 9.59293 5.72612 7.70956 6.71812 6.71757ZM13.1183 3.25542C14.0718 3.53587 15.0479 3.92169 16.0284 4.40533C17.0088 3.92169 17.9849 3.53588 18.9384 3.25542C22.0611 2.33701 25.3277 2.46405 27.4599 4.59625C28.9191 6.05539 29.4396 8.07153 29.3296 10.159C29.2317 12.0189 28.6353 14.0318 27.6508 16.0278C28.1345 17.0082 28.5203 17.9843 28.8007 18.9379C29.7192 22.0605 29.5921 25.3272 27.4599 27.4594C25.3277 29.5916 22.0611 29.7186 18.9384 28.8002C17.9849 28.5197 17.0088 28.1339 16.0284 27.6503C15.0479 28.1339 14.0718 28.5197 13.1183 28.8002C9.99566 29.7186 6.72899 29.5916 4.5968 27.4594C3.13867 26.0012 2.61787 23.9868 2.72684 21.9009C2.82406 20.0398 3.42065 18.0253 4.40591 16.0279C3.92226 15.0474 3.53643 14.0713 3.25597 13.1177C2.33756 9.99511 2.4646 6.72844 4.5968 4.59624C6.72899 2.46405 9.99566 2.33701 13.1183 3.25542ZM22.7459 9.31029C21.6167 8.18116 20.4269 7.1782 19.2125 6.31629C19.4052 6.24999 19.5961 6.18905 19.7849 6.13352C22.4632 5.34579 24.3466 5.72557 25.3386 6.71757C26.0228 7.40176 26.4138 8.48246 26.3338 10.0013C26.2886 10.8601 26.0921 11.8198 25.7399 12.8437C24.878 11.6293 23.875 10.4394 22.7459 9.31029ZM9.31084 22.7453C10.44 23.8745 11.6298 24.8774 12.8442 25.7393C12.6515 25.8056 12.4606 25.8666 12.2718 25.9221C9.59348 26.7098 7.71011 26.33 6.71812 25.338C6.03437 24.6543 5.6435 23.5746 5.72275 22.0574C5.76765 21.1979 5.9642 20.2371 6.31683 19.2119C7.17874 20.4263 8.1817 21.6162 9.31084 22.7453ZM19 16C19 17.6569 17.6569 19 16 19C14.3431 19 13 17.6569 13 16C13 14.3431 14.3431 13 16 13C17.6569 13 19 14.3431 19 16Z" fill="#F59C5C"/>
<path d="M43.52 9.18C44.5333 9.18 45.2533 9.34667 45.68 9.68C46.12 10.0133 46.34 10.46 46.34 11.02C46.34 11.7 46.04 12.2 45.44 12.52C44.8533 12.84 43.9467 13 42.72 13C42.3733 13 41.98 12.9933 41.54 12.98C41.1 12.9533 40.64 12.9267 40.16 12.9L40.28 12.38C40.3733 12.74 40.4133 13.1867 40.4 13.72C40.4 14.24 40.3533 14.7467 40.26 15.24L40.08 14.96C41.5867 15.0533 42.7733 15.2133 43.64 15.44C44.5067 15.6667 45.12 15.96 45.48 16.32C45.8533 16.6667 46.04 17.0933 46.04 17.6C46.04 18 45.8933 18.3333 45.6 18.6C45.32 18.8667 44.8867 19 44.3 19C43.6333 19 42.9 18.86 42.1 18.58C41.3133 18.2867 40.5 17.8733 39.66 17.34L40.32 17.3C40.44 17.5933 40.5533 17.9933 40.66 18.5C40.78 18.9933 40.8733 19.5267 40.94 20.1C41.0067 20.6733 41.04 21.2133 41.04 21.72C41.04 22.5067 40.8733 23.0867 40.54 23.46C40.22 23.8333 39.7733 24.02 39.2 24.02C38.7867 24.02 38.4333 23.9267 38.14 23.74C37.86 23.5667 37.6533 23.2867 37.52 22.9C37.36 22.4733 37.2333 21.82 37.14 20.94C37.0467 20.06 37 18.96 37 17.64C37 15.76 37.1067 14.2733 37.32 13.18C37.5333 12.0733 37.8067 11.2867 38.14 10.82C38.4333 10.42 38.8667 10.1 39.44 9.86C40.0267 9.62 40.68 9.44667 41.4 9.34C42.12 9.23333 42.8267 9.18 43.52 9.18ZM56.1045 23.38C55.6779 23.38 55.3445 23.26 55.1045 23.02C54.8779 22.7667 54.7245 22.4467 54.6445 22.06C54.5645 21.66 54.5245 21.24 54.5245 20.8L54.6245 20.72C54.4645 21.2933 54.1845 21.7867 53.7845 22.2C53.3979 22.6133 52.9445 22.9333 52.4245 23.16C51.9179 23.3733 51.4112 23.48 50.9045 23.48C50.1845 23.48 49.5445 23.32 48.9845 23C48.4379 22.6667 48.0045 22.1467 47.6845 21.44C47.3912 20.7733 47.1579 19.9067 46.9845 18.84C46.8245 17.7733 46.7445 16.6733 46.7445 15.54C46.7445 14.9667 46.7645 14.44 46.8045 13.96C46.8579 13.4667 46.9379 13.06 47.0445 12.74C47.1779 12.3267 47.3845 12.0267 47.6645 11.84C47.9445 11.64 48.2912 11.54 48.7045 11.54C49.1845 11.54 49.5645 11.7133 49.8445 12.06C50.1245 12.3933 50.2912 12.8667 50.3445 13.48C50.3979 13.9067 50.4312 14.42 50.4445 15.02C50.4712 15.6067 50.4979 16.1933 50.5245 16.78C50.5512 17.3667 50.5779 17.86 50.6045 18.26C50.6845 18.94 50.8579 19.44 51.1245 19.76C51.4045 20.08 51.7512 20.24 52.1645 20.24C52.7512 20.24 53.1979 20.0067 53.5045 19.54C53.8112 19.06 53.9645 18.4 53.9645 17.56C53.9645 17.1333 53.9379 16.6467 53.8845 16.1C53.8445 15.5533 53.7979 15.02 53.7445 14.5C53.7045 13.98 53.6845 13.5533 53.6845 13.22C53.6845 12.4867 53.8179 11.96 54.0845 11.64C54.3512 11.32 54.7245 11.16 55.2045 11.16C55.6045 11.16 55.9445 11.26 56.2245 11.46C56.5179 11.6467 56.7379 11.9133 56.8845 12.26C57.0712 12.66 57.2312 13.2 57.3645 13.88C57.4979 14.56 57.6045 15.3333 57.6845 16.2C57.7645 17.0533 57.8045 17.96 57.8045 18.92C57.8045 20.4133 57.6779 21.5333 57.4245 22.28C57.1845 23.0133 56.7445 23.38 56.1045 23.38ZM61.1366 11.06C61.6566 11.06 62.0166 11.2333 62.2166 11.58C62.4166 11.9267 62.5166 12.44 62.5166 13.12C62.5166 13.28 62.5032 13.4533 62.4766 13.64C62.4632 13.8133 62.4366 13.9733 62.3966 14.12L62.3566 13.72C62.6632 12.8533 63.1432 12.18 63.7966 11.7C64.4632 11.2067 65.1699 10.96 65.9166 10.96C66.7699 10.96 67.4832 11.2 68.0566 11.68C68.6299 12.16 69.0566 12.8333 69.3366 13.7C69.6299 14.5667 69.7766 15.5933 69.7766 16.78C69.7766 17.46 69.7432 18.1267 69.6766 18.78C69.6232 19.4333 69.5499 20.0333 69.4566 20.58C69.3632 21.1133 69.2499 21.5533 69.1166 21.9C68.9299 22.3667 68.6766 22.72 68.3566 22.96C68.0499 23.1867 67.6832 23.3 67.2566 23.3C66.8032 23.3 66.4566 23.1467 66.2166 22.84C65.9766 22.52 65.8566 22.0867 65.8566 21.54C65.8566 21.1133 65.8832 20.6 65.9366 20C65.9899 19.3867 66.0432 18.7733 66.0966 18.16C66.1499 17.5333 66.1766 16.9867 66.1766 16.52C66.1766 14.96 65.6766 14.18 64.6766 14.18C64.1432 14.18 63.6899 14.4267 63.3166 14.92C62.9566 15.4 62.7166 16.0867 62.5966 16.98C62.5566 17.3267 62.5299 17.76 62.5166 18.28C62.5166 18.7867 62.5099 19.2933 62.4966 19.8C62.4966 20.2933 62.4832 20.7133 62.4566 21.06C62.3899 21.9267 62.2032 22.5467 61.8966 22.92C61.5899 23.2933 61.1766 23.48 60.6566 23.48C60.0299 23.48 59.5566 23.2533 59.2366 22.8C58.9299 22.3333 58.7766 21.5533 58.7766 20.46C58.7766 19.9 58.7899 19.2733 58.8166 18.58C58.8432 17.8867 58.8766 17.1933 58.9166 16.5C58.9699 15.7933 59.0299 15.1533 59.0966 14.58C59.2299 13.5 59.4499 12.6467 59.7566 12.02C60.0632 11.38 60.5232 11.06 61.1366 11.06ZM74.61 22.94C73.3567 22.94 72.35 22.4667 71.59 21.52C70.83 20.5733 70.45 19.1333 70.45 17.2C70.45 15.1333 70.81 13.6267 71.53 12.68C72.2633 11.72 73.2567 11.24 74.51 11.24C75.2567 11.24 75.9167 11.42 76.49 11.78C77.0633 12.1267 77.5633 12.62 77.99 13.26L77.77 13.78C77.73 13.5933 77.6967 13.3933 77.67 13.18C77.6433 12.9667 77.63 12.8067 77.63 12.7C77.63 12.1133 77.7433 11.66 77.97 11.34C78.1967 11.02 78.55 10.86 79.03 10.86C79.55 10.86 79.97 11.0533 80.29 11.44C80.61 11.8267 80.8433 12.38 80.99 13.1C81.15 13.7267 81.2833 14.52 81.39 15.48C81.4967 16.44 81.55 17.4133 81.55 18.4C81.55 19.68 81.5033 20.7533 81.41 21.62C81.3167 22.4867 81.1633 23.2067 80.95 23.78C80.7367 24.3533 80.4567 24.8533 80.11 25.28C79.5233 25.9867 78.75 26.52 77.79 26.88C76.83 27.24 75.73 27.42 74.49 27.42C73.5833 27.42 72.8567 27.3333 72.31 27.16C71.7767 26.9867 71.39 26.7533 71.15 26.46C70.91 26.1667 70.79 25.8333 70.79 25.46C70.79 25.0333 70.8967 24.68 71.11 24.4C71.3233 24.12 71.65 23.98 72.09 23.98C72.49 23.98 72.93 24.02 73.41 24.1C73.9033 24.18 74.4567 24.22 75.07 24.22C76.23 24.22 77.05 23.9733 77.53 23.48C78.01 22.9867 78.25 22.2733 78.25 21.34C78.25 21.0333 78.23 20.6733 78.19 20.26L78.47 20.24C78.1233 21.0667 77.6167 21.7267 76.95 22.22C76.2833 22.7 75.5033 22.94 74.61 22.94ZM75.87 20.12C76.23 20.12 76.5833 20.02 76.93 19.82C77.2767 19.62 77.5567 19.2933 77.77 18.84C77.9967 18.3867 78.11 17.7733 78.11 17C78.11 16.08 77.9167 15.3333 77.53 14.76C77.1433 14.1733 76.57 13.88 75.81 13.88C75.17 13.88 74.6833 14.14 74.35 14.66C74.03 15.1667 73.87 15.94 73.87 16.98C73.87 17.9667 74.03 18.74 74.35 19.3C74.6833 19.8467 75.19 20.12 75.87 20.12ZM84.6477 8.16C85.2877 8.16 85.7477 8.32667 86.0277 8.66C86.3077 8.99333 86.4477 9.37333 86.4477 9.8C86.4477 10.3333 86.2743 10.7467 85.9277 11.04C85.581 11.3333 85.0943 11.48 84.4677 11.48C83.8543 11.48 83.3943 11.32 83.0877 11C82.7943 10.68 82.6477 10.3 82.6477 9.86C82.6477 9.3 82.8277 8.88 83.1877 8.6C83.561 8.30667 84.0477 8.16 84.6477 8.16ZM84.7877 12.62C85.3077 12.62 85.7143 13.02 86.0077 13.82C86.301 14.62 86.4477 15.8933 86.4477 17.64C86.4477 19.7867 86.261 21.3333 85.8877 22.28C85.5277 23.2267 84.9743 23.7 84.2277 23.7C83.6543 23.7 83.2277 23.3533 82.9477 22.66C82.681 21.9533 82.5477 20.7267 82.5477 18.98C82.5477 16.8333 82.7543 15.24 83.1677 14.2C83.5943 13.1467 84.1343 12.62 84.7877 12.62ZM94.0708 9.18C95.0841 9.18 95.8041 9.34667 96.2308 9.68C96.6708 10.0133 96.8908 10.46 96.8908 11.02C96.8908 11.7 96.5908 12.2 95.9908 12.52C95.4041 12.84 94.4974 13 93.2708 13C92.9241 13 92.5308 12.9933 92.0908 12.98C91.6508 12.9533 91.1908 12.9267 90.7108 12.9L90.8308 12.38C90.9241 12.74 90.9641 13.1867 90.9508 13.72C90.9508 14.24 90.9041 14.7467 90.8108 15.24L90.6308 14.96C92.1374 15.0533 93.3241 15.2133 94.1908 15.44C95.0574 15.6667 95.6708 15.96 96.0308 16.32C96.4041 16.6667 96.5908 17.0933 96.5908 17.6C96.5908 18 96.4441 18.3333 96.1508 18.6C95.8708 18.8667 95.4374 19 94.8508 19C94.1841 19 93.4508 18.86 92.6508 18.58C91.8641 18.2867 91.0508 17.8733 90.2108 17.34L90.8708 17.3C90.9908 17.5933 91.1041 17.9933 91.2108 18.5C91.3308 18.9933 91.4241 19.5267 91.4908 20.1C91.5574 20.6733 91.5908 21.2133 91.5908 21.72C91.5908 22.5067 91.4241 23.0867 91.0908 23.46C90.7708 23.8333 90.3241 24.02 89.7508 24.02C89.3374 24.02 88.9841 23.9267 88.6908 23.74C88.4108 23.5667 88.2041 23.2867 88.0708 22.9C87.9108 22.4733 87.7841 21.82 87.6908 20.94C87.5974 20.06 87.5508 18.96 87.5508 17.64C87.5508 15.76 87.6574 14.2733 87.8708 13.18C88.0841 12.0733 88.3574 11.2867 88.6908 10.82C88.9841 10.42 89.4174 10.1 89.9908 9.86C90.5774 9.62 91.2308 9.44667 91.9508 9.34C92.6708 9.23333 93.3774 9.18 94.0708 9.18ZM99.3953 8.16C100.035 8.16 100.495 8.32667 100.775 8.66C101.055 8.99333 101.195 9.37333 101.195 9.8C101.195 10.3333 101.022 10.7467 100.675 11.04C100.329 11.3333 99.842 11.48 99.2153 11.48C98.602 11.48 98.142 11.32 97.8353 11C97.542 10.68 97.3953 10.3 97.3953 9.86C97.3953 9.3 97.5753 8.88 97.9353 8.6C98.3086 8.30667 98.7953 8.16 99.3953 8.16ZM99.5353 12.62C100.055 12.62 100.462 13.02 100.755 13.82C101.049 14.62 101.195 15.8933 101.195 17.64C101.195 19.7867 101.009 21.3333 100.635 22.28C100.275 23.2267 99.722 23.7 98.9753 23.7C98.402 23.7 97.9753 23.3533 97.6953 22.66C97.4286 21.9533 97.2953 20.7267 97.2953 18.98C97.2953 16.8333 97.502 15.24 97.9153 14.2C98.342 13.1467 98.882 12.62 99.5353 12.62ZM104.558 11.06C105.078 11.06 105.438 11.2333 105.638 11.58C105.838 11.9267 105.938 12.44 105.938 13.12C105.938 13.28 105.925 13.4533 105.898 13.64C105.885 13.8133 105.858 13.9733 105.818 14.12L105.778 13.72C106.085 12.8533 106.565 12.18 107.218 11.7C107.885 11.2067 108.592 10.96 109.338 10.96C110.192 10.96 110.905 11.2 111.478 11.68C112.052 12.16 112.478 12.8333 112.758 13.7C113.052 14.5667 113.198 15.5933 113.198 16.78C113.198 17.46 113.165 18.1267 113.098 18.78C113.045 19.4333 112.972 20.0333 112.878 20.58C112.785 21.1133 112.672 21.5533 112.538 21.9C112.352 22.3667 112.098 22.72 111.778 22.96C111.472 23.1867 111.105 23.3 110.678 23.3C110.225 23.3 109.878 23.1467 109.638 22.84C109.398 22.52 109.278 22.0867 109.278 21.54C109.278 21.1133 109.305 20.6 109.358 20C109.412 19.3867 109.465 18.7733 109.518 18.16C109.572 17.5333 109.598 16.9867 109.598 16.52C109.598 14.96 109.098 14.18 108.098 14.18C107.565 14.18 107.112 14.4267 106.738 14.92C106.378 15.4 106.138 16.0867 106.018 16.98C105.978 17.3267 105.952 17.76 105.938 18.28C105.938 18.7867 105.932 19.2933 105.918 19.8C105.918 20.2933 105.905 20.7133 105.878 21.06C105.812 21.9267 105.625 22.5467 105.318 22.92C105.012 23.2933 104.598 23.48 104.078 23.48C103.452 23.48 102.978 23.2533 102.658 22.8C102.352 22.3333 102.198 21.5533 102.198 20.46C102.198 19.9 102.212 19.2733 102.238 18.58C102.265 17.8867 102.298 17.1933 102.338 16.5C102.392 15.7933 102.452 15.1533 102.518 14.58C102.652 13.5 102.872 12.6467 103.178 12.02C103.485 11.38 103.945 11.06 104.558 11.06ZM117.972 23.78C116.692 23.78 115.685 23.2933 114.952 22.32C114.232 21.3333 113.872 19.8333 113.872 17.82C113.872 15.82 114.225 14.36 114.932 13.44C115.639 12.5067 116.652 12.04 117.972 12.04C118.745 12.04 119.425 12.2 120.012 12.52C120.599 12.84 121.125 13.2933 121.592 13.88L121.352 13.96C121.259 13.44 121.159 12.8867 121.052 12.3C120.945 11.7133 120.859 11.16 120.792 10.64C120.739 10.12 120.712 9.70667 120.712 9.4C120.712 8.86667 120.812 8.46 121.012 8.18C121.225 7.88667 121.552 7.74 121.992 7.74C122.539 7.74 122.979 7.94667 123.312 8.36C123.659 8.77333 123.932 9.4 124.132 10.24C124.292 10.8933 124.432 11.68 124.552 12.6C124.672 13.52 124.765 14.4867 124.832 15.5C124.912 16.5 124.952 17.4533 124.952 18.36C124.952 19.7467 124.865 20.8333 124.692 21.62C124.532 22.3933 124.299 22.9333 123.992 23.24C123.685 23.5467 123.325 23.7 122.912 23.7C122.419 23.7 122.079 23.4933 121.892 23.08C121.719 22.6667 121.632 21.9933 121.632 21.06H121.972C121.612 21.8867 121.085 22.5467 120.392 23.04C119.712 23.5333 118.905 23.78 117.972 23.78ZM119.412 20.86C119.812 20.86 120.179 20.7533 120.512 20.54C120.845 20.3267 121.112 19.9933 121.312 19.54C121.512 19.0733 121.612 18.4933 121.612 17.8C121.612 16.8933 121.425 16.1533 121.052 15.58C120.679 15.0067 120.119 14.72 119.372 14.72C118.785 14.72 118.305 14.9733 117.932 15.48C117.559 15.9867 117.372 16.7533 117.372 17.78C117.372 18.6733 117.559 19.4133 117.932 20C118.305 20.5733 118.799 20.86 119.412 20.86ZM131.93 23.66C130.383 23.66 129.15 23.44 128.23 23C127.323 22.56 126.663 21.9267 126.25 21.1C125.85 20.2733 125.65 19.2867 125.65 18.14C125.65 16.6867 125.93 15.4533 126.49 14.44C127.063 13.4133 127.843 12.6267 128.83 12.08C129.83 11.5333 130.963 11.26 132.23 11.26C133.737 11.26 134.837 11.5867 135.53 12.24C136.223 12.88 136.57 13.7267 136.57 14.78C136.57 15.62 136.343 16.3467 135.89 16.96C135.45 17.5733 134.837 18.0467 134.05 18.38C133.263 18.7 132.357 18.86 131.33 18.86C130.783 18.86 130.257 18.8067 129.75 18.7C129.257 18.58 128.81 18.42 128.41 18.22L128.89 17.24C128.85 17.56 128.83 17.88 128.83 18.2C128.83 19 129.09 19.5733 129.61 19.92C130.13 20.2533 130.863 20.42 131.81 20.42C132.61 20.42 133.263 20.3467 133.77 20.2C134.277 20.04 134.71 19.8867 135.07 19.74C135.43 19.5933 135.777 19.52 136.11 19.52C136.323 19.52 136.523 19.58 136.71 19.7C136.91 19.8067 137.07 19.9667 137.19 20.18C137.323 20.3933 137.39 20.66 137.39 20.98C137.39 21.46 137.183 21.9067 136.77 22.32C136.357 22.72 135.743 23.0467 134.93 23.3C134.117 23.54 133.117 23.66 131.93 23.66ZM130.77 16.94C131.597 16.94 132.277 16.76 132.81 16.4C133.343 16.0267 133.61 15.5733 133.61 15.04C133.61 14.6533 133.47 14.3333 133.19 14.08C132.923 13.8133 132.51 13.68 131.95 13.68C131.417 13.68 130.923 13.7867 130.47 14C130.03 14.2 129.677 14.4667 129.41 14.8C129.157 15.12 129.03 15.4733 129.03 15.86C129.03 16.2067 129.183 16.4733 129.49 16.66C129.797 16.8467 130.223 16.94 130.77 16.94ZM137.865 14.78C137.865 13.3933 138.012 12.3933 138.305 11.78C138.598 11.1667 139.018 10.86 139.565 10.86C139.965 10.86 140.278 11.0067 140.505 11.3C140.732 11.58 140.898 11.9333 141.005 12.36C141.112 12.7733 141.165 13.1933 141.165 13.62L141.065 13.58C141.292 12.86 141.638 12.24 142.105 11.72C142.572 11.2 143.138 10.94 143.805 10.94C144.618 10.94 145.218 11.2733 145.605 11.94C146.005 12.5933 146.205 13.4133 146.205 14.4C146.205 15.7067 146.032 16.62 145.685 17.14C145.338 17.66 144.878 17.92 144.305 17.92C143.878 17.92 143.565 17.7733 143.365 17.48C143.165 17.1867 143.092 16.6933 143.145 16C143.185 15.3467 143.145 14.8933 143.025 14.64C142.918 14.3867 142.745 14.26 142.505 14.26C142.198 14.26 141.952 14.4467 141.765 14.82C141.592 15.18 141.505 15.6467 141.505 16.22C141.505 16.4867 141.538 16.8333 141.605 17.26C141.672 17.6733 141.745 18.1267 141.825 18.62C141.905 19.1 141.978 19.58 142.045 20.06C142.112 20.54 142.145 20.9867 142.145 21.4C142.145 22.16 141.998 22.7067 141.705 23.04C141.412 23.3733 140.998 23.54 140.465 23.54C139.905 23.54 139.465 23.38 139.145 23.06C138.825 22.74 138.592 22.22 138.445 21.5C138.352 20.94 138.258 20.2667 138.165 19.48C138.072 18.68 137.998 17.8667 137.945 17.04C137.892 16.2 137.865 15.4467 137.865 14.78ZM152.094 10.98C153.374 10.98 154.294 11.1867 154.854 11.6C155.428 12 155.714 12.52 155.714 13.16C155.714 13.56 155.581 13.8867 155.314 14.14C155.061 14.38 154.694 14.5 154.214 14.5C153.801 14.5 153.361 14.44 152.894 14.32C152.428 14.1867 151.894 14.12 151.294 14.12C150.774 14.12 150.381 14.2267 150.114 14.44C149.848 14.64 149.714 14.8933 149.714 15.2C149.714 15.5067 149.834 15.7533 150.074 15.94C150.328 16.1133 150.828 16.24 151.574 16.32C152.548 16.4267 153.361 16.6 154.014 16.84C154.668 17.0667 155.154 17.42 155.474 17.9C155.808 18.3667 155.974 19.02 155.974 19.86C155.974 21.14 155.514 22.08 154.594 22.68C153.674 23.28 152.394 23.58 150.754 23.58C149.688 23.58 148.834 23.4867 148.194 23.3C147.554 23.1133 147.088 22.8467 146.794 22.5C146.514 22.1533 146.374 21.7533 146.374 21.3C146.374 20.8733 146.514 20.5467 146.794 20.32C147.074 20.08 147.408 19.96 147.794 19.96C148.101 19.96 148.428 20 148.774 20.08C149.121 20.1467 149.488 20.2267 149.874 20.32C150.261 20.4 150.661 20.44 151.074 20.44C152.088 20.44 152.594 20.1333 152.594 19.52C152.594 19.3067 152.541 19.1333 152.434 19C152.328 18.8533 152.128 18.7333 151.834 18.64C151.554 18.5467 151.134 18.4667 150.574 18.4C149.734 18.32 149.008 18.18 148.394 17.98C147.781 17.7667 147.308 17.44 146.974 17C146.641 16.5467 146.474 15.9333 146.474 15.16C146.474 13.9067 146.961 12.9 147.934 12.14C148.908 11.3667 150.294 10.98 152.094 10.98Z" fill="#F59C5C"/>
</svg>
